<mxfile host="65bd71144e">
    <diagram id="8jN68-IGOk_802pL4fj4" name="Page-1">
        <mxGraphModel dx="1093" dy="477" grid="1" gridSize="10" guides="1" tooltips="1" connect="1" arrows="1" fold="1" page="1" pageScale="1" pageWidth="850" pageHeight="1100" math="0" shadow="0">
            <root>
                <mxCell id="0"/>
                <mxCell id="1" parent="0"/>
                <mxCell id="23" value="Build Host / GitHub Runner" style="rounded=0;whiteSpace=wrap;html=1;fillColor=none;labelPosition=center;verticalLabelPosition=top;align=center;verticalAlign=bottom;dashed=1;" vertex="1" parent="1">
                    <mxGeometry x="50" y="120" width="220" height="290" as="geometry"/>
                </mxCell>
                <mxCell id="4" value="Docker Compose" style="rounded=0;whiteSpace=wrap;html=1;fillColor=none;labelPosition=center;verticalLabelPosition=top;align=center;verticalAlign=bottom;dashed=1;" vertex="1" parent="1">
                    <mxGeometry x="280" y="120" width="540" height="290" as="geometry"/>
                </mxCell>
                <mxCell id="12" value="Start&lt;br&gt;Container" style="edgeStyle=none;html=1;" edge="1" parent="1" source="2" target="6">
                    <mxGeometry x="-0.3333" relative="1" as="geometry">
                        <mxPoint as="offset"/>
                    </mxGeometry>
                </mxCell>
                <mxCell id="2" value="Test Execution&lt;br&gt;&lt;i&gt;(./test-docker.sh)&lt;/i&gt;" style="rounded=0;whiteSpace=wrap;html=1;fillColor=#fff2cc;strokeColor=#d6b656;" vertex="1" parent="1">
                    <mxGeometry x="80" y="160" width="120" height="60" as="geometry"/>
                </mxCell>
                <mxCell id="5" value="&amp;lt;leda-x86&amp;gt;/ &amp;lt;leda-arm64&amp;gt;" style="rounded=0;whiteSpace=wrap;html=1;fillColor=#d5e8d4;labelPosition=center;verticalLabelPosition=top;align=center;verticalAlign=bottom;strokeColor=#82b366;" vertex="1" parent="1">
                    <mxGeometry x="580" y="160" width="220" height="220" as="geometry"/>
                </mxCell>
                <mxCell id="13" value="Black Box Tests" style="edgeStyle=none;html=1;" edge="1" parent="1" source="6" target="14">
                    <mxGeometry x="-0.3335" y="2" relative="1" as="geometry">
                        <mxPoint as="offset"/>
                    </mxGeometry>
                </mxCell>
                <mxCell id="16" value="System Tests" style="edgeStyle=none;html=1;" edge="1" parent="1" source="6" target="15">
                    <mxGeometry relative="1" as="geometry"/>
                </mxCell>
                <mxCell id="22" value="Writes&lt;br&gt;Reports" style="html=1;" edge="1" parent="1" source="6" target="21">
                    <mxGeometry x="0.3286" y="4" relative="1" as="geometry">
                        <mxPoint as="offset"/>
                    </mxGeometry>
                </mxCell>
                <mxCell id="6" value="&amp;lt;leda-tests&amp;gt;&lt;br&gt;Robot Framework" style="rounded=0;whiteSpace=wrap;html=1;fillColor=#f8cecc;strokeColor=#b85450;" vertex="1" parent="1">
                    <mxGeometry x="320" y="160" width="120" height="60" as="geometry"/>
                </mxCell>
                <mxCell id="10" value="read" style="edgeStyle=none;html=1;" edge="1" parent="1" source="8" target="6">
                    <mxGeometry relative="1" as="geometry"/>
                </mxCell>
                <mxCell id="8" value="Test Cases&lt;br&gt;*.robot" style="shape=note;whiteSpace=wrap;html=1;backgroundOutline=1;darkOpacity=0.05;fillColor=#f8cecc;strokeColor=#b85450;" vertex="1" parent="1">
                    <mxGeometry x="320" y="280" width="80" height="100" as="geometry"/>
                </mxCell>
                <mxCell id="11" value="read" style="edgeStyle=none;html=1;" edge="1" parent="1" source="9" target="6">
                    <mxGeometry relative="1" as="geometry"/>
                </mxCell>
                <mxCell id="9" value="Robot Variable&lt;br&gt;&lt;br&gt;vars-x86.yaml&lt;br&gt;vars-arm64.yaml" style="shape=note;whiteSpace=wrap;html=1;backgroundOutline=1;darkOpacity=0.05;fillColor=#f8cecc;strokeColor=#b85450;" vertex="1" parent="1">
                    <mxGeometry x="420" y="280" width="125" height="100" as="geometry"/>
                </mxCell>
                <mxCell id="18" style="edgeStyle=orthogonalEdgeStyle;html=1;" edge="1" parent="1" source="14" target="17">
                    <mxGeometry relative="1" as="geometry"/>
                </mxCell>
                <mxCell id="14" value="MQTT" style="rounded=0;whiteSpace=wrap;html=1;fillColor=#e1d5e7;strokeColor=#9673a6;" vertex="1" parent="1">
                    <mxGeometry x="710" y="180" width="70" height="30" as="geometry"/>
                </mxCell>
                <mxCell id="20" style="edgeStyle=orthogonalEdgeStyle;html=1;" edge="1" parent="1" source="15" target="19">
                    <mxGeometry relative="1" as="geometry"/>
                </mxCell>
                <mxCell id="15" value="SSH" style="rounded=0;whiteSpace=wrap;html=1;fillColor=#dae8fc;strokeColor=#6c8ebf;" vertex="1" parent="1">
                    <mxGeometry x="610" y="220" width="70" height="30" as="geometry"/>
                </mxCell>
                <mxCell id="17" value="SDV Components:&lt;br&gt;SUA, VUM, Kanto, ..." style="rounded=0;whiteSpace=wrap;html=1;fillColor=#e1d5e7;strokeColor=#9673a6;" vertex="1" parent="1">
                    <mxGeometry x="700" y="280" width="90" height="70" as="geometry"/>
                </mxCell>
                <mxCell id="19" value="System&lt;br&gt;Tools&lt;br&gt;(rauc, sdv-health, ...)" style="rounded=0;whiteSpace=wrap;html=1;fillColor=#dae8fc;strokeColor=#6c8ebf;" vertex="1" parent="1">
                    <mxGeometry x="600" y="280" width="90" height="70" as="geometry"/>
                </mxCell>
                <mxCell id="21" value="Test Reports&lt;br&gt;./leda-tests-reports/" style="rounded=0;whiteSpace=wrap;html=1;fillColor=#fff2cc;strokeColor=#d6b656;" vertex="1" parent="1">
                    <mxGeometry x="80" y="320" width="120" height="60" as="geometry"/>
                </mxCell>
            </root>
        </mxGraphModel>
    </diagram>
</mxfile>